<svg xmlns="http://www.w3.org/2000/svg" viewBox="0 0 750 471" fill="none">
  <path d="M278 334l33-196h54l-33 196H278zm245-191c-11-4-27-8-48-8-53 0-90 27-90 65 0 28 27 44 47 53 21 10 28 16 28 24 0 13-17 19-32 19-22 0-33-3-51-10l-7-3-7 44c12 5 35 10 59 10 56 0 93-26 93-67 0-22-14-39-45-53-19-9-30-15-30-24 0-8 10-17 31-17 17 0 30 4 40 7l5 2 7-43zm137-4h-41c-13 0-22 4-28 16l-79 179h56l11-29h68l7 29h49l-43-195zm-65 117c4-11 21-55 21-55l7-19 4 17 12 57h-44zM240 138l-50 142-5-27c-10-31-39-64-72-81l48 153h56l84-187H240z" fill="#1A1F71"/>
  <path d="M130 138H44l-1 4c67 16 111 55 130 102l-19-90c-3-12-13-16-24-16z" fill="#F7981D"/>
</svg>
